<?xml version="1.0" encoding="UTF-8" standalone="no"?> <svg xmlns="http://www.w3.org/2000/svg" viewBox="0 0 64 64"><g id="Layer_92" data-name="Layer 92"><path d="M36.29,29.2a10,10,0,1,0-8.58,0A18.45,18.45,0,0,0,13.57,47.1a.75.75,0,0,0,1.5,0,16.93,16.93,0,0,1,33.86,0,.75.75,0,0,0,1.5,0A18.45,18.45,0,0,0,36.29,29.2Zm-12.81-9A8.52,8.52,0,1,1,32,28.68,8.52,8.52,0,0,1,23.48,20.16Z"/><path d="M32,60.75A28.75,28.75,0,1,1,60.75,32,28.79,28.79,0,0,1,32,60.75Zm0-56A27.25,27.25,0,1,0,59.25,32,27.28,27.28,0,0,0,32,4.75Z"/></g></svg>